<?xml version="1.0" encoding="UTF-8" standalone="no"?>
<!-- Created with Inkscape (http://www.inkscape.org/) -->

<svg
   xmlns:dc="http://purl.org/dc/elements/1.1/"
   xmlns:cc="http://creativecommons.org/ns#"
   xmlns:rdf="http://www.w3.org/1999/02/22-rdf-syntax-ns#"
   xmlns:svg="http://www.w3.org/2000/svg"
   xmlns="http://www.w3.org/2000/svg"
   xmlns:sodipodi="http://sodipodi.sourceforge.net/DTD/sodipodi-0.dtd"
   xmlns:inkscape="http://www.inkscape.org/namespaces/inkscape"
   width="297mm"
   height="210mm"
   viewBox="0 0 297 210"
   version="1.1"
   id="svg8"
   inkscape:version="0.92.5 (2060ec1f9f, 2020-04-08)"
   sodipodi:docname="eslabon.svg">
  <defs
     id="defs2" />
  <sodipodi:namedview
     id="base"
     pagecolor="#ffffff"
     bordercolor="#666666"
     borderopacity="1.0"
     inkscape:pageopacity="0.0"
     inkscape:pageshadow="2"
     inkscape:zoom="0.98994949"
     inkscape:cx="563.65312"
     inkscape:cy="384.59684"
     inkscape:document-units="mm"
     inkscape:current-layer="layer2"
     showgrid="false"
     inkscape:snap-midpoints="true"
     inkscape:snap-smooth-nodes="true"
     inkscape:snap-intersection-paths="true"
     inkscape:object-paths="true"
     inkscape:snap-object-midpoints="true"
     inkscape:snap-center="true"
     inkscape:window-width="1848"
     inkscape:window-height="1016"
     inkscape:window-x="72"
     inkscape:window-y="27"
     inkscape:window-maximized="1" />
  <metadata
     id="metadata5">
    <rdf:RDF>
      <cc:Work
         rdf:about="">
        <dc:format>image/svg+xml</dc:format>
        <dc:type
           rdf:resource="http://purl.org/dc/dcmitype/StillImage" />
        <dc:title></dc:title>
      </cc:Work>
    </rdf:RDF>
  </metadata>
  <g
     inkscape:label="Layer 1"
     inkscape:groupmode="layer"
     id="layer1"
     transform="translate(0,-87)">
    <path
       id="path844-6"
       style="fill:#87cdde;stroke:#000000;stroke-width:0.83012962;stroke-miterlimit:4;stroke-dasharray:none;stroke-opacity:1"
       d="M 239.58494,187 A 9.5849352,9.5849352 0 0 1 230,196.58494 9.5849352,9.5849352 0 0 1 220.41506,187 9.5849352,9.5849352 0 0 1 230,177.41506 9.5849352,9.5849352 0 0 1 239.58494,187 Z M 89.584935,187 A 9.5849352,9.5849352 0 0 1 80,196.58494 9.5849352,9.5849352 0 0 1 70.415065,187 9.5849352,9.5849352 0 0 1 80,177.41506 9.5849352,9.5849352 0 0 1 89.584935,187 Z M 79.999768,157.36004 A 29.640165,29.640167 0 0 0 50.359717,187.0001 29.640165,29.640167 0 0 0 79.999768,216.64015 H 229.99991 a 29.640165,29.640167 0 0 0 29.64005,-29.64005 29.640165,29.640167 0 0 0 -29.64005,-29.64006 z" />
  </g>
  <g
     inkscape:groupmode="layer"
     id="layer2"
     inkscape:label="Layer 2" />
</svg>
